<svg width="50" height="50" viewBox="0 0 50 50" fill="none" xmlns="http://www.w3.org/2000/svg">
<g clip-path="url(#clip0_408_322)">
<rect width="50" height="50" rx="25" fill="url(#paint0_radial_408_322)"/>
<rect width="50" height="50" rx="25" fill="url(#paint1_radial_408_322)"/>
<path d="M21.3791 25.0677C21.3791 23.0303 23.0303 21.3782 25.0677 21.3782C27.1051 21.3782 28.7572 23.0303 28.7572 25.0677C28.7572 27.1051 27.1051 28.7572 25.0677 28.7572C23.0303 28.7572 21.3791 27.1051 21.3791 25.0677ZM19.3846 25.0677C19.3846 28.2065 21.9289 30.7508 25.0677 30.7508C28.2065 30.7508 30.7508 28.2065 30.7508 25.0677C30.7508 21.9289 28.2065 19.3846 25.0677 19.3846C21.9289 19.3846 19.3846 21.9289 19.3846 25.0677ZM29.6477 19.1592C29.6476 19.4219 29.7254 19.6787 29.8712 19.8972C30.0171 20.1157 30.2244 20.286 30.4671 20.3866C30.7097 20.4872 30.9768 20.5136 31.2344 20.4625C31.4921 20.4113 31.7288 20.2849 31.9146 20.0993C32.1004 19.9136 32.227 19.677 32.2783 19.4194C32.3297 19.1618 32.3035 18.8947 32.2031 18.652C32.1026 18.4093 31.9325 18.2018 31.7141 18.0558C31.4958 17.9097 31.239 17.8317 30.9764 17.8316H30.9758C30.6237 17.8318 30.2861 17.9717 30.0371 18.2206C29.788 18.4696 29.648 18.8071 29.6477 19.1592ZM20.5964 34.0766C19.5173 34.0274 18.9308 33.8477 18.541 33.6958C18.0243 33.4947 17.6556 33.2551 17.268 32.868C16.8803 32.4809 16.6404 32.1125 16.4401 31.5958C16.2882 31.2062 16.1084 30.6195 16.0594 29.5405C16.0057 28.3739 15.995 28.0234 15.995 25.0678C15.995 22.1122 16.0066 21.7627 16.0594 20.5951C16.1085 19.5161 16.2896 18.9305 16.4401 18.5398C16.6413 18.0231 16.8809 17.6544 17.268 17.2667C17.6551 16.8791 18.0234 16.6392 18.541 16.4389C18.9306 16.2869 19.5173 16.1072 20.5964 16.0582C21.763 16.0045 22.1134 15.9938 25.0677 15.9938C28.022 15.9938 28.3728 16.0054 29.5404 16.0582C30.6194 16.1073 31.205 16.2884 31.5957 16.4389C32.1124 16.6392 32.4811 16.8796 32.8688 17.2667C33.2564 17.6538 33.4955 18.0231 33.6966 18.5398C33.8486 18.9294 34.0283 19.5161 34.0774 20.5951C34.131 21.7627 34.1417 22.1122 34.1417 25.0678C34.1417 28.0234 34.131 28.3729 34.0774 29.5405C34.0282 30.6195 33.8476 31.206 33.6966 31.5958C33.4955 32.1125 33.2559 32.4812 32.8688 32.868C32.4817 33.2547 32.1124 33.4947 31.5957 33.6958C31.2061 33.8478 30.6194 34.0275 29.5404 34.0766C28.3738 34.1302 28.0233 34.1409 25.0677 34.1409C22.1121 34.1409 21.7626 34.1302 20.5964 34.0766ZM20.5047 14.067C19.3265 14.1207 18.5214 14.3075 17.8183 14.5811C17.0901 14.8636 16.4737 15.2427 15.8577 15.8577C15.2417 16.4727 14.8636 17.0901 14.5811 17.8183C14.3075 18.5218 14.1207 19.3265 14.067 20.5047C14.0125 21.6848 14 22.0621 14 25.0677C14 28.0733 14.0125 28.4506 14.067 29.6307C14.1207 30.809 14.3075 31.6136 14.5811 32.3171C14.8636 33.0449 15.2418 33.663 15.8577 34.2777C16.4736 34.8925 17.0901 35.271 17.8183 35.5543C18.5227 35.8279 19.3265 36.0147 20.5047 36.0684C21.6854 36.122 22.0621 36.1354 25.0677 36.1354C28.0733 36.1354 28.4506 36.1229 29.6307 36.0684C30.809 36.0147 31.6136 35.8279 32.3171 35.5543C33.0449 35.271 33.6617 34.8927 34.2777 34.2777C34.8937 33.6627 35.271 33.0449 35.5543 32.3171C35.8279 31.6136 36.0156 30.8089 36.0684 29.6307C36.122 28.4497 36.1345 28.0733 36.1345 25.0677C36.1345 22.0621 36.122 21.6848 36.0684 20.5047C36.0147 19.3264 35.8279 18.5214 35.5543 17.8183C35.271 17.0905 34.8927 16.4737 34.2777 15.8577C33.6627 15.2417 33.0449 14.8636 32.318 14.5811C31.6136 14.3075 30.8089 14.1198 29.6316 14.067C28.4515 14.0134 28.0742 14 25.0686 14C22.063 14 21.6854 14.0125 20.5047 14.067Z" fill="white"/>
</g>
<defs>
<radialGradient id="paint0_radial_408_322" cx="0" cy="0" r="1" gradientUnits="userSpaceOnUse" gradientTransform="translate(13.2813 53.851) rotate(-90) scale(49.5537 46.0888)">
<stop stop-color="#FFDD55"/>
<stop offset="0.1" stop-color="#FFDD55"/>
<stop offset="0.5" stop-color="#FF543E"/>
<stop offset="1" stop-color="#C837AB"/>
</radialGradient>
<radialGradient id="paint1_radial_408_322" cx="0" cy="0" r="1" gradientUnits="userSpaceOnUse" gradientTransform="translate(-8.37526 3.60192) rotate(78.6806) scale(22.1507 91.3062)">
<stop stop-color="#3771C8"/>
<stop offset="0.128" stop-color="#3771C8"/>
<stop offset="1" stop-color="#6600FF" stop-opacity="0"/>
</radialGradient>
<clipPath id="clip0_408_322">
<rect width="50" height="50" fill="white"/>
</clipPath>
</defs>
</svg>
