<svg width="16" height="16" viewBox="0 0 16 16" fill="none" xmlns="http://www.w3.org/2000/svg">
<path fill-rule="evenodd" clip-rule="evenodd" d="M9.33301 3.99998C9.33301 4.19157 9.35321 4.37845 9.39161 4.55859L6.01093 6.24893C5.52205 5.68788 4.80227 5.33331 3.99967 5.33331C2.52691 5.33331 1.33301 6.52722 1.33301 7.99998C1.33301 9.47274 2.52691 10.6666 3.99967 10.6666C4.80229 10.6666 5.52209 10.3121 6.01097 9.75099L9.39162 11.4413C9.35322 11.6215 9.33301 11.8084 9.33301 12C9.33301 13.4727 10.5269 14.6666 11.9997 14.6666C13.4724 14.6666 14.6663 13.4727 14.6663 12C14.6663 10.5272 13.4724 9.33331 11.9997 9.33331C11.1971 9.33331 10.4772 9.68791 9.98838 10.249L6.60773 8.55865C6.64613 8.37849 6.66634 8.1916 6.66634 7.99998C6.66634 7.80834 6.64613 7.62143 6.60771 7.44125L9.98834 5.75093C10.4772 6.31203 11.197 6.66665 11.9997 6.66665C13.4724 6.66665 14.6663 5.47274 14.6663 3.99998C14.6663 2.52722 13.4724 1.33331 11.9997 1.33331C10.5269 1.33331 9.33301 2.52722 9.33301 3.99998ZM5.33301 7.99998C5.33301 8.73636 4.73605 9.33331 3.99967 9.33331C3.26329 9.33331 2.66634 8.73636 2.66634 7.99998C2.66634 7.2636 3.26329 6.66665 3.99967 6.66665C4.73605 6.66665 5.33301 7.2636 5.33301 7.99998ZM11.9997 5.33331C12.7361 5.33331 13.333 4.73636 13.333 3.99998C13.333 3.2636 12.7361 2.66665 11.9997 2.66665C11.2633 2.66665 10.6663 3.2636 10.6663 3.99998C10.6663 4.73636 11.2633 5.33331 11.9997 5.33331ZM13.333 12C13.333 12.7364 12.7361 13.3333 11.9997 13.3333C11.2633 13.3333 10.6663 12.7364 10.6663 12C10.6663 11.2636 11.2633 10.6666 11.9997 10.6666C12.7361 10.6666 13.333 11.2636 13.333 12Z" fill="#212645"/>
</svg>
