<svg width="50" height="50" viewBox="0 0 50 50" fill="none" xmlns="http://www.w3.org/2000/svg">
<rect width="50" height="50" rx="25" fill="#8E24AA"/>
<g clip-path="url(#clip0_455_14)">
<path d="M36.1551 27.893C36.8711 21.866 35.8111 18.061 33.8991 16.34L33.9001 16.339C30.8141 13.4 20.3921 12.965 16.7001 16.471C15.0421 18.186 14.4581 20.703 14.3941 23.819C14.3301 26.936 14.2541 32.775 19.6951 34.359H19.7001L19.6951 36.778C19.6951 36.778 19.6581 37.758 20.2841 37.955C21.0001 38.187 21.3241 37.732 23.5511 35.072C27.2751 35.395 30.1351 34.655 30.4601 34.547C31.2121 34.295 35.4671 33.732 36.1551 27.893ZM23.9181 33.37C23.9181 33.37 21.5611 36.309 20.8281 37.072C20.5881 37.32 20.3251 37.297 20.3291 36.805C20.3291 36.482 20.3471 32.789 20.3471 32.789C15.7341 31.467 16.0061 26.495 16.0561 23.894C16.1061 21.292 16.5821 19.161 17.9861 17.726C21.2251 14.689 30.3621 15.368 32.6901 17.556C35.5361 20.079 34.5231 27.207 34.5291 27.45C33.9441 32.324 30.4961 32.633 29.8621 32.844C29.5911 32.934 27.0761 33.581 23.9181 33.37Z" fill="white"/>
<path d="M25.2223 18.2969C24.8373 18.2969 24.8373 18.8969 25.2223 18.9019C28.2093 18.9249 30.6693 21.0069 30.6963 24.8259C30.6963 25.2289 31.2863 25.2239 31.2813 24.8209H31.2803C31.2483 20.7059 28.5623 18.3199 25.2223 18.2969Z" fill="white"/>
<path d="M29.1509 24.193C29.1419 24.591 29.7309 24.61 29.7359 24.207C29.7849 21.938 28.3859 20.069 25.7569 19.872C25.3719 19.844 25.3319 20.449 25.7159 20.477C27.9959 20.65 29.1969 22.206 29.1509 24.193Z" fill="white"/>
<path d="M28.5212 26.7741C28.0272 26.4881 27.5242 26.6661 27.3162 26.9471L26.8812 27.5101C26.6602 27.7961 26.2472 27.7581 26.2472 27.7581C23.2332 26.9611 22.4272 23.8071 22.4272 23.8071C22.4272 23.8071 22.3902 23.3801 22.6662 23.1511L23.2102 22.7011C23.4822 22.4851 23.6542 21.9651 23.3772 21.4541C22.6372 20.1171 22.1402 19.6561 21.8872 19.3021C21.6212 18.9691 21.2212 18.8941 20.8052 19.1191H20.7962C19.9312 19.6251 18.9842 20.5721 19.2872 21.5471C19.8042 22.5751 20.7542 25.8521 23.7822 28.3281C25.2052 29.4991 27.4572 30.6991 28.4132 30.9761L28.4222 30.9901C29.3642 31.3041 30.2802 30.3201 30.7692 29.4291V29.4221C30.9862 28.9911 30.9142 28.5831 30.5972 28.3161C30.0352 27.7681 29.1872 27.1631 28.5212 26.7741Z" fill="white"/>
<path d="M26.1693 22.1042C27.1303 22.1602 27.5963 22.6622 27.6463 23.6932C27.6643 24.0962 28.2493 24.0682 28.2313 23.6652C28.1673 22.3192 27.4653 21.5692 26.2013 21.4992C25.8163 21.4762 25.7803 22.0812 26.1693 22.1042Z" fill="white"/>
</g>
<defs>
<clipPath id="clip0_455_14">
<rect width="24" height="24" fill="white" transform="translate(13 14)"/>
</clipPath>
</defs>
</svg>
