<svg width="50" height="50" viewBox="0 0 50 50" fill="none" xmlns="http://www.w3.org/2000/svg">
<g clip-path="url(#clip0_408_321)">
<rect width="50" height="50" rx="25" fill="#5181B8"/>
<rect x="8" y="8" width="34" height="34" rx="17" fill="#5181B8"/>
<path fill-rule="evenodd" clip-rule="evenodd" d="M36.0694 18.9495C36.2336 18.4022 36.0694 18 35.2882 18H32.7051C32.0483 18 31.7457 18.3474 31.5815 18.7306C31.5815 18.7306 30.2678 21.9324 28.4069 24.0121C27.8049 24.6141 27.5312 24.8055 27.2028 24.8055C27.0386 24.8055 26.801 24.6141 26.801 24.0669V18.9495C26.801 18.2926 26.6104 18 26.0629 18H22.0038C21.5935 18 21.3466 18.3048 21.3466 18.5937C21.3466 19.2164 22.2769 19.36 22.3728 21.1113V24.9152C22.3728 25.7492 22.2223 25.9005 21.8939 25.9005C21.0182 25.9005 18.8883 22.6842 17.6248 19.0043C17.3772 18.2889 17.1288 18 16.4687 18H13.8856C13.1476 18 13 18.3474 13 18.7306C13 19.4148 13.8758 22.8082 17.0776 27.2961C19.2123 30.3607 22.2193 32.0224 24.9559 32.0224C26.598 32.0224 26.801 31.6534 26.801 31.0177V28.7013C26.801 27.9633 26.9565 27.816 27.4763 27.816C27.8597 27.816 28.5163 28.0075 30.049 29.4852C31.8003 31.2364 32.0889 32.0224 33.0741 32.0224H35.6572C36.3952 32.0224 36.7642 31.6534 36.5513 30.9251C36.3185 30.1993 35.4823 29.1465 34.3727 27.8981C33.7706 27.1865 32.8675 26.4202 32.594 26.0372C32.2108 25.5446 32.3202 25.3258 32.594 24.8881C32.594 24.8881 35.741 20.4548 36.0694 18.9496V18.9495Z" fill="white"/>
</g>
<defs>
<clipPath id="clip0_408_321">
<rect width="50" height="50" fill="white"/>
</clipPath>
</defs>
</svg>
