<svg width="50" height="50" viewBox="0 0 50 50" fill="none" xmlns="http://www.w3.org/2000/svg">
<rect width="50" height="50" rx="25" fill="#4CAF50"/>
<g clip-path="url(#clip0_455_8)">
<path d="M33.52 15.449C31.24 13.245 28.24 12 25.045 12C15.875 12 10.117 21.935 14.696 29.838L13 36L19.335 34.348C22.095 35.839 24.356 35.707 25.051 35.795C35.684 35.795 40.977 22.931 33.505 15.488L33.52 15.449Z" fill="white"/>
<path d="M25.0669 33.7512L25.0609 33.7502H25.0449C21.8629 33.7502 19.8299 32.2432 19.6299 32.1562L15.8799 33.1312L16.8849 29.4862L16.6459 29.1112C15.6559 27.5352 15.1299 25.7202 15.1299 23.8512C15.1299 15.0582 25.8749 10.6612 32.0929 16.8762C38.2959 23.0262 33.9409 33.7512 25.0669 33.7512Z" fill="#4CAF50"/>
<path d="M30.5071 26.3072L30.4981 26.3822C30.1971 26.2322 28.7311 25.5152 28.4581 25.4162C27.8451 25.1892 28.0181 25.3802 26.8411 26.7282C26.6661 26.9232 26.4921 26.9382 26.1951 26.8032C25.8951 26.6532 24.9321 26.3382 23.7921 25.3182C22.9041 24.5232 22.3081 23.5482 22.1321 23.2482C21.8391 22.7422 22.4521 22.6702 23.0101 21.6142C23.1101 21.4042 23.0591 21.2392 22.9851 21.0902C22.9101 20.9402 22.3131 19.4702 22.0631 18.8842C21.8231 18.3002 21.5761 18.3742 21.3911 18.3742C20.8151 18.3242 20.3941 18.3322 20.0231 18.7182C18.4091 20.4922 18.8161 22.3222 20.1971 24.2682C22.9111 27.8202 24.3571 28.4742 27.0011 29.3822C27.7151 29.6092 28.3661 29.5772 28.8811 29.5032C29.4551 29.4122 30.6481 28.7822 30.8971 28.0772C31.1521 27.3722 31.1521 26.7872 31.0771 26.6522C31.0031 26.5172 30.8071 26.4422 30.5071 26.3072Z" fill="white"/>
</g>
<defs>
<clipPath id="clip0_455_8">
<rect width="24" height="24" fill="white" transform="translate(13 12)"/>
</clipPath>
</defs>
</svg>
